<svg width="24" height="24" viewBox="0 0 24 24" fill="none" xmlns="http://www.w3.org/2000/svg">
<path fill-rule="evenodd" clip-rule="evenodd" d="M8.30167 4H15.6983C16.5998 4 17.0501 4 17.4141 4.1304C17.7573 4.2555 18.0678 4.46032 18.3216 4.72893C18.5753 4.99754 18.7654 5.32271 18.8771 5.67916C19 6.06475 19 6.54154 19 7.49592V18.6989C19 19.3853 18.2339 19.7501 17.7493 19.2941C17.6134 19.1649 17.4351 19.0931 17.25 19.0931C17.0649 19.0931 16.8866 19.1649 16.7507 19.2941L16.375 19.6477C16.1368 19.8742 15.8244 20 15.5 20C15.1756 20 14.8632 19.8742 14.625 19.6477C14.3868 19.4211 14.0744 19.2953 13.75 19.2953C13.4256 19.2953 13.1132 19.4211 12.875 19.6477C12.6368 19.8742 12.3244 20 12 20C11.6756 20 11.3632 19.8742 11.125 19.6477C10.8868 19.4211 10.5744 19.2953 10.25 19.2953C9.92562 19.2953 9.61316 19.4211 9.375 19.6477C9.13684 19.8742 8.82438 20 8.5 20C8.17562 20 7.86316 19.8742 7.625 19.6477L7.24933 19.2941C7.11339 19.1649 6.93509 19.0931 6.75 19.0931C6.56491 19.0931 6.38661 19.1649 6.25067 19.2941C5.76611 19.7501 5 19.3853 5 18.6989V7.49592C5 6.54154 5 6.06395 5.12289 5.67996C5.35622 4.94958 5.89678 4.37679 6.58589 4.1304C6.94989 4 7.40022 4 8.30167 4ZM8.11111 7.79992C7.9564 7.79992 7.80803 7.86313 7.69863 7.97565C7.58924 8.08817 7.52778 8.24078 7.52778 8.3999C7.52778 8.55903 7.58924 8.71164 7.69863 8.82416C7.80803 8.93668 7.9564 8.99989 8.11111 8.99989H8.5C8.65471 8.99989 8.80308 8.93668 8.91248 8.82416C9.02187 8.71164 9.08333 8.55903 9.08333 8.3999C9.08333 8.24078 9.02187 8.08817 8.91248 7.97565C8.80308 7.86313 8.65471 7.79992 8.5 7.79992H8.11111ZM10.8333 7.79992C10.6786 7.79992 10.5303 7.86313 10.4209 7.97565C10.3115 8.08817 10.25 8.24078 10.25 8.3999C10.25 8.55903 10.3115 8.71164 10.4209 8.82416C10.5303 8.93668 10.6786 8.99989 10.8333 8.99989H15.8889C16.0436 8.99989 16.192 8.93668 16.3014 8.82416C16.4108 8.71164 16.4722 8.55903 16.4722 8.3999C16.4722 8.24078 16.4108 8.08817 16.3014 7.97565C16.192 7.86313 16.0436 7.79992 15.8889 7.79992H10.8333ZM8.11111 10.5999C7.9564 10.5999 7.80803 10.6631 7.69863 10.7756C7.58924 10.8881 7.52778 11.0407 7.52778 11.1998C7.52778 11.359 7.58924 11.5116 7.69863 11.6241C7.80803 11.7366 7.9564 11.7998 8.11111 11.7998H8.5C8.65471 11.7998 8.80308 11.7366 8.91248 11.6241C9.02187 11.5116 9.08333 11.359 9.08333 11.1998C9.08333 11.0407 9.02187 10.8881 8.91248 10.7756C8.80308 10.6631 8.65471 10.5999 8.5 10.5999H8.11111ZM10.8333 10.5999C10.6786 10.5999 10.5303 10.6631 10.4209 10.7756C10.3115 10.8881 10.25 11.0407 10.25 11.1998C10.25 11.359 10.3115 11.5116 10.4209 11.6241C10.5303 11.7366 10.6786 11.7998 10.8333 11.7998H15.8889C16.0436 11.7998 16.192 11.7366 16.3014 11.6241C16.4108 11.5116 16.4722 11.359 16.4722 11.1998C16.4722 11.0407 16.4108 10.8881 16.3014 10.7756C16.192 10.6631 16.0436 10.5999 15.8889 10.5999H10.8333ZM8.11111 13.3998C7.9564 13.3998 7.80803 13.463 7.69863 13.5755C7.58924 13.688 7.52778 13.8407 7.52778 13.9998C7.52778 14.1589 7.58924 14.3115 7.69863 14.424C7.80803 14.5366 7.9564 14.5998 8.11111 14.5998H8.5C8.65471 14.5998 8.80308 14.5366 8.91248 14.424C9.02187 14.3115 9.08333 14.1589 9.08333 13.9998C9.08333 13.8407 9.02187 13.688 8.91248 13.5755C8.80308 13.463 8.65471 13.3998 8.5 13.3998H8.11111ZM10.8333 13.3998C10.6786 13.3998 10.5303 13.463 10.4209 13.5755C10.3115 13.688 10.25 13.8407 10.25 13.9998C10.25 14.1589 10.3115 14.3115 10.4209 14.424C10.5303 14.5366 10.6786 14.5998 10.8333 14.5998H15.8889C16.0436 14.5998 16.192 14.5366 16.3014 14.424C16.4108 14.3115 16.4722 14.1589 16.4722 13.9998C16.4722 13.8407 16.4108 13.688 16.3014 13.5755C16.192 13.463 16.0436 13.3998 15.8889 13.3998H10.8333Z" fill="white"/>
</svg>
