<svg width="20" height="20" viewBox="0 0 20 20" fill="none" xmlns="http://www.w3.org/2000/svg">
<path d="M12.9167 11.25C12.9167 12.9166 10.8333 14.1666 10.8333 15.4166H9.16667C9.16667 14.1666 7.08333 12.9166 7.08333 11.25C7.08333 9.64165 8.39167 8.33331 10 8.33331C11.6083 8.33331 12.9167 9.64165 12.9167 11.25ZM10.8333 16.25H9.16667V17.5H10.8333V16.25ZM15.8333 10.8333C15.8333 12.2333 15.3417 13.5083 14.5167 14.5166L15.7 15.7C16.8167 14.3916 17.5 12.6916 17.5 10.8333C17.5 8.54998 16.475 6.50831 14.8667 5.13331L13.6833 6.31665C14.9917 7.38331 15.8333 9.01665 15.8333 10.8333ZM13.3333 4.16665L10 0.833313V3.33331C5.85833 3.33331 2.5 6.69165 2.5 10.8333C2.5 12.6916 3.18333 14.3916 4.3 15.7L5.48333 14.5166C4.65833 13.5083 4.16667 12.2333 4.16667 10.8333C4.16667 7.61665 6.78333 4.99998 10 4.99998V7.49998L13.3333 4.16665Z" fill="#B6B4BA"/>
</svg>
