<svg width="20" height="20" viewBox="0 0 20 20" fill="none" xmlns="http://www.w3.org/2000/svg">
<path fillRule="evenodd" clip-rule="evenodd" d="M13.8916 10.9417C15.0333 11.7167 15.8333 12.7667 15.8333 14.1667V16.6667H19.1666V14.1667C19.1666 12.35 16.1916 11.275 13.8916 10.9417Z" fill="#B6B4BA"/>
<path d="M7.50033 10C9.34127 10 10.8337 8.50763 10.8337 6.66668C10.8337 4.82573 9.34127 3.33334 7.50033 3.33334C5.65938 3.33334 4.16699 4.82573 4.16699 6.66668C4.16699 8.50763 5.65938 10 7.50033 10Z" fill="#84818A"/>
<path fillRule="evenodd" clip-rule="evenodd" d="M12.4999 10C14.3416 10 15.8333 8.50834 15.8333 6.66668C15.8333 4.82501 14.3416 3.33334 12.4999 3.33334C12.1083 3.33334 11.7416 3.41668 11.3916 3.53334C12.0833 4.39168 12.4999 5.48334 12.4999 6.66668C12.4999 7.85001 12.0833 8.94168 11.3916 9.80001C11.7416 9.91668 12.1083 10 12.4999 10Z" fill="#84818A"/>
<path fillRule="evenodd" clip-rule="evenodd" d="M7.50016 10.8333C5.27516 10.8333 0.833496 11.95 0.833496 14.1667V16.6667H14.1668V14.1667C14.1668 11.95 9.72516 10.8333 7.50016 10.8333Z" fill="#84818A"/>
</svg>
