<svg width="16" height="16" viewBox="0 0 16 16" fill="none" xmlns="http://www.w3.org/2000/svg">
<path d="M12.942 6.63457L8.03353 12.524C7.09025 13.6558 5.40955 13.8084 4.27776 12.8652C3.14597 11.9219 2.99329 10.2412 3.93656 9.10939L9.27183 2.70788C9.86085 2.00115 10.9125 1.90562 11.6192 2.49463C12.3259 3.08365 12.4215 4.13526 11.8324 4.84199L7.35081 10.2193C7.11606 10.5009 6.69353 10.5393 6.41187 10.3046C6.1302 10.0698 6.09182 9.64728 6.32657 9.36561L10.3814 4.50047L9.61319 3.86023L5.55839 8.72538C4.96937 9.43211 5.06491 10.4837 5.77164 11.0727C6.47836 11.6618 7.52998 11.5662 8.11899 10.8595L12.6006 5.48222C13.5439 4.35043 13.3912 2.66973 12.2594 1.72645C11.1276 0.783176 9.44693 0.935861 8.50365 2.06765L3.16838 8.46916C1.87084 10.026 2.08068 12.3358 3.63753 13.6333C5.19437 14.9309 7.50417 14.721 8.80171 13.1642L13.7102 7.27481L12.942 6.63457Z" fill="#84818A"/>
</svg>
