<svg width="24" height="24" viewBox="0 0 24 24" fill="none" xmlns="http://www.w3.org/2000/svg">
<path d="M19.4149 9.95192L12.0522 18.786C10.6373 20.4837 8.11627 20.7127 6.41859 19.2978C4.72091 17.8829 4.49188 15.3618 5.9068 13.6641L13.9097 4.06188C14.7932 3.00179 16.3706 2.85849 17.4307 3.74201C18.4908 4.62553 18.6341 6.20295 17.7506 7.26304L11.0282 15.3289C10.676 15.7514 10.0423 15.809 9.61975 15.4569C9.19725 15.1048 9.13968 14.471 9.49181 14.0485L15.574 6.75076L14.4217 5.79041L8.33953 13.0881C7.45601 14.1482 7.59932 15.7256 8.65941 16.6092C9.7195 17.4927 11.2969 17.3494 12.1804 16.2893L18.9029 8.22339C20.3178 6.52571 20.0888 4.00465 18.3911 2.58974C16.6934 1.17482 14.1723 1.40385 12.7574 3.10153L4.75453 12.7038C2.80822 15.0391 3.12297 18.5038 5.45824 20.4501C7.79351 22.3964 11.2582 22.0816 13.2045 19.7464L20.5672 10.9123L19.4149 9.95192Z" fill="white"/>
</svg>
